<?xml version="1.0" encoding="UTF-8"?>
<svg width="1791" height="2205" viewBox="0 0 1791 2205" xmlns="http://www.w3.org/2000/svg">
    <g id="Experiment51">
        <path id="Circle-copy" fill="none" stroke="#8f5e76" stroke-width="15.039349" stroke-linecap="round" stroke-linejoin="round" d="M 1278.0448 236.938965 C 1278.0448 219.697876 1264.067993 205.721069 1246.826904 205.721069 C 1229.585693 205.721069 1215.608887 219.697876 1215.608887 236.938965 C 1215.608887 254.180176 1229.585693 268.156982 1246.826904 268.156982 C 1264.067993 268.156982 1278.0448 254.180176 1278.0448 236.938965 Z"/>
        <path id="Path" fill="none" stroke="#8f5e76" stroke-width="14" stroke-linecap="round" stroke-linejoin="round" opacity="0.45" d="M 1160 266 C 1218.960693 235.094238 1239 175 1239 175 C 1239 175 1318.967529 244.467529 1252 269 C 1227 269 1160 266 1160 266 Z M 1249 269 C 1106.141357 254.578857 1013 301 1013 301"/>
        <linearGradient id="linearGradient1" x1="1259.571671" y1="642.939751" x2="1180.417929" y2="1969.457822" gradientUnits="userSpaceOnUse">
            <stop offset="0" stop-color="#8f5e76" stop-opacity="1"/>
            <stop offset="1" stop-color="#4f1637" stop-opacity="0"/>
        </linearGradient>
        <path id="Path-copy-2" fill="none" stroke="url(#linearGradient1)" stroke-width="15.039349" stroke-linecap="round" stroke-linejoin="round" d="M 1502.307861 481.844971 C 1490.833252 549.994141 1565.528809 622.617554 1614.570068 782.765137 C 1659.453125 929.334106 1703.783447 1310.168701 1375.802734 1589.580444 C 1047.822266 1868.99231 840.615234 1793.703125 427.495605 2052.029785 C 279.43042 2144.615723 118.376465 2245.934814 19.66626 2147.224609 L 19.66626 2147.224609 C -7.383667 2120.174805 177.463013 1951.449463 299.008545 1488.143311 C 420.553711 1024.837158 831.661865 665.736084 906 550 C 958.036865 468.984863 848.278503 372.734863 944 210"/>
        <linearGradient id="linearGradient2" x1="1140.292165" y1="483.936547" x2="1068.736712" y2="1912.212011" gradientUnits="userSpaceOnUse">
            <stop offset="0" stop-color="#8f5e76" stop-opacity="1"/>
            <stop offset="1" stop-color="#4f1637" stop-opacity="0"/>
        </linearGradient>
        <path id="Path-copy-3" fill="none" stroke="url(#linearGradient2)" stroke-width="15.039349" stroke-linecap="round" stroke-linejoin="round" d="M 19.66626 2147.224609 L 19.66626 2147.224609 C -7.383667 2120.174805 177.463013 1951.449463 299.008545 1488.143311 C 420.553711 1024.837158 831.661865 665.736084 906 550 C 958.036865 468.984863 848.278503 372.734863 944 210 C 985.023438 140.256104 1055.130615 55.791748 1192 25 C 1270.797607 7.272461 1399.743408 16.530518 1489.229004 118.195801"/>
        <path id="Path-copy" fill="none" stroke="#8f5e76" stroke-width="18.547506" stroke-linecap="round" stroke-linejoin="round" d="M 1497 504 C 1138.85376 649.59375 1033.852783 483.643799 917.142822 283.346924 C 916.666504 282.529297 949.516602 277.602539 975 259 C 1096.99292 169.946777 1242.424805 -46.877686 1490 199"/>
        <path id="Path-copy-6" fill="none" stroke="#8f5e76" stroke-width="15.039349" stroke-linecap="round" stroke-linejoin="round" d="M 1478.84082 116.401123 C 1478.84082 116.401123 1707.870117 150.025391 1782.111816 344.244629 C 1787.503662 394.183838 1627.345947 471.814453 1503.108887 482.115967 C 1503.306885 473.05957 1503.913818 378.798584 1480.401367 368.17334 C 1456.888916 357.548096 1503.861572 326.03125 1505.890869 319.275391 C 1507.128662 315.154297 1506.144043 204.812256 1472.078369 141.890381 C 1454.38208 109.204346 1478.84082 116.401123 1478.84082 116.401123 Z"/>
        <path id="Path-copy-5" fill="none" stroke="#8f5e76" stroke-width="14" stroke-linecap="round" stroke-linejoin="round" opacity="0.45" d="M 1475 124 C 1475 124 1533.5 205.75 1542 298 C 1550.5 390.25 1508 481 1508 481 M 1477 116 C 1477 116 1580.5 205.75 1589 298 C 1597.5 390.25 1520 467 1520 467"/>
    </g>
</svg>
