<?xml version="1.0" encoding="UTF-8"?>
<svg width="1029" height="793" viewBox="0 0 1029 793" xmlns="http://www.w3.org/2000/svg">
    <g id="Raccoon">
        <path id="Path-copy-3" fill="#995e7e" fill-rule="evenodd" stroke="none" d="M 514.858154 792.983398 L 156.0327 663.919678 L 2.858168 523.509644 L 140.431549 306.512482 L 95.046532 140.573425 L 123.412216 3 L 337.572876 136.843872 L 514.858154 136.843872 L 692.143494 136.843872 L 906.304138 3 L 934.669861 140.573425 L 889.28479 306.512482 L 1026.858154 523.509644 L 873.683655 663.919678 L 514.858154 792.983398 Z"/>
        <path id="Path-copy-4" fill="#7b3059" fill-rule="evenodd" stroke="none" d="M 515 219 L 156.032715 663.919617 L 2.858154 523.509705 L 140.431519 306.512451 L 95.046509 140.573364 L 123.412239 3 L 337.572876 136.843872 L 514.858154 136.843872 L 692.143433 136.843872 L 906.304199 3 L 934.669983 140.573364 L 889.284729 306.512451 L 1026.858154 523.509705 L 873.683533 663.919617 L 515 219 Z"/>
        <path id="Path" fill="#823b62" fill-rule="evenodd" stroke="#823b62" stroke-linecap="round" stroke-linejoin="round" d="M 97.883102 522.091431 L 304.952362 293.747925 L 304.952362 390.191132 Z"/>
        <path id="path1" fill="#833c62" fill-rule="evenodd" stroke="#833c62" stroke-linecap="round" stroke-linejoin="round" d="M 458.126862 293.747925 L 401.395569 390.191132 L 304.952362 293.747925 Z"/>
        <path id="path2" fill="#823b62" fill-rule="evenodd" stroke="#823b62" stroke-linecap="round" stroke-linejoin="round" d="M 401.395569 390.191132 L 304.952362 390.191132 L 304.952362 293.747925 L 401.395569 390.191132 Z"/>
        <path id="path3" fill="#7e345c" fill-rule="evenodd" stroke="#7e345c" stroke-linecap="round" stroke-linejoin="round" d="M 96.464813 523.509705 L 304.952362 390.191132 L 401.395569 390.191132 L 96.464813 523.509705 Z"/>
        <path id="path4" fill="#7c3159" fill-rule="evenodd" stroke="#7c3159" stroke-linecap="round" stroke-linejoin="round" d="M 231.20166 690.867065 L 156.032684 663.919678 L 95.046532 522.091431 L 231.20166 690.867065 Z"/>
        <path id="path5" fill="#7c3159" fill-rule="evenodd" stroke="#7c3159" stroke-linecap="round" stroke-linejoin="round" d="M 486.492523 493.725769 L 96.464813 523.509705 L 401.395569 390.191132 L 486.492523 493.725769 Z"/>
        <path id="Path-copy" fill="#80365e" fill-rule="evenodd" stroke="#80365e" stroke-linecap="round" stroke-linejoin="round" d="M 458.126862 293.747925 L 571.589478 293.747925 L 533.295837 492.307465 L 496.420502 492.307465 Z"/>
        <path id="Path-copy-2" fill="#813960" fill-rule="evenodd" stroke="#813960" stroke-linecap="round" stroke-linejoin="round" d="M 463.799988 639.808838 L 565.916321 639.808838 L 533.295837 492.307465 L 496.420502 492.307465 Z"/>
        <path id="path6" fill="#7b3059" fill-rule="evenodd" stroke="#7b3059" stroke-linecap="round" stroke-linejoin="round" d="M 231.20166 690.867065 L 486.492523 493.725769 L 96.464813 523.509705 Z"/>
        <path id="path7" fill="#813960" fill-rule="evenodd" stroke="#813960" stroke-linecap="round" stroke-linejoin="round" d="M 304.952362 293.747925 L 121.993904 397.282562 L 96.464813 523.509705 L 304.952362 293.747925 Z"/>
        <path id="path8" fill="#7e345c" fill-rule="evenodd" stroke="#7e345c" stroke-linecap="round" stroke-linejoin="round" d="M 337.572845 136.843872 L 121.993935 397.282532 L 140.431549 306.512451 L 258.858154 191.76947 L 337.572845 136.843872 Z"/>
        <path id="path9" fill="#80365e" fill-rule="evenodd" stroke="#80365e" stroke-linecap="round" stroke-linejoin="round" d="M 304.952393 293.747955 L 121.993935 397.282532 L 337.572845 136.843872 L 304.952393 293.747955 Z"/>
        <path id="path10" fill="#80375f" fill-rule="evenodd" stroke="#80375f" stroke-linecap="round" stroke-linejoin="round" d="M 514.858154 136.843872 L 304.952393 293.747925 L 337.572876 136.843872 L 337.572876 136.843872"/>
        <path id="path11" fill="#813960" fill-rule="evenodd" stroke="#813960" stroke-linecap="round" stroke-linejoin="round" d="M 458.126923 293.747925 L 304.952393 293.747925 L 514.858154 136.843872 L 458.126923 293.747925 Z"/>
        <path id="path12" fill="#7a2e57" fill-rule="evenodd" stroke="#7a2e57" stroke-linecap="round" stroke-linejoin="round" d="M 2.858168 523.509705 L 96.464813 523.509705 L 156.032684 663.919678 L 2.858168 523.509705 Z"/>
        <path id="path13" fill="#7c3159" fill-rule="evenodd" stroke="#7c3159" stroke-linecap="round" stroke-linejoin="round" d="M 140.43158 306.512451 L 2.858168 523.509705 L 96.464813 523.509705 L 140.43158 306.512451 Z"/>
        <path id="path14" fill="#905173" fill-rule="evenodd" stroke="#905173" stroke-linecap="round" stroke-linejoin="round" d="M 337.572876 136.843872 L 123.412216 3 L 259.567322 191.631592 L 337.572876 136.843872 Z"/>
        <path id="path15" fill="#7f365e" fill-rule="evenodd" stroke="#7f365e" stroke-linecap="round" stroke-linejoin="round" d="M 95.046532 141.991699 L 140.43158 306.512451 L 259.567322 191.631592 L 95.046532 141.991699 Z"/>
        <path id="path16" fill="#833c62" fill-rule="evenodd" stroke="#833c62" stroke-linecap="round" stroke-linejoin="round" d="M 123.412186 3 L 95.046532 141.991699 L 259.567322 191.631592 L 123.412186 3 Z"/>
        <path id="path17" fill="#772953" fill-rule="evenodd" stroke="#772953" stroke-linecap="round" stroke-linejoin="round" d="M 319.135162 497.980621 L 380.121338 497.980621 L 380.121338 435.576172 L 319.135162 497.980621 Z"/>
        <path id="path18" fill="#772a54" fill-opacity="0.8" fill-rule="evenodd" stroke="#782b55" stroke-linecap="round" stroke-linejoin="round" d="M 380.121338 435.576172 L 319.135162 435.576172 L 319.135162 497.980621 L 380.121338 435.576172 Z"/>
        <path id="path19" fill="#823b62" fill-rule="evenodd" stroke="#823b62" stroke-linecap="round" stroke-linejoin="round" d="M 931.833252 522.091431 L 724.763977 293.747925 L 724.763977 390.191132 Z"/>
        <path id="path20" fill="#833c62" fill-rule="evenodd" stroke="#833c62" stroke-linecap="round" stroke-linejoin="round" d="M 571.589478 293.747925 L 628.320801 390.191132 L 724.763977 293.747925 Z"/>
        <path id="path21" fill="#823b62" fill-rule="evenodd" stroke="#823b62" stroke-linecap="round" stroke-linejoin="round" d="M 628.320801 390.191132 L 724.763977 390.191132 L 724.763977 293.747925 L 628.320801 390.191132 Z"/>
        <path id="path22" fill="#7e345c" fill-rule="evenodd" stroke="#7e345c" stroke-linecap="round" stroke-linejoin="round" d="M 933.251526 523.509705 L 724.763977 390.191132 L 628.320801 390.191132 L 933.251526 523.509705 Z"/>
        <path id="path23" fill="#7c3159" fill-rule="evenodd" stroke="#7c3159" stroke-linecap="round" stroke-linejoin="round" d="M 798.514648 690.867065 L 873.683655 663.919678 L 934.6698 522.091431 L 798.514648 690.867065 Z"/>
        <path id="path24" fill="#7c3159" fill-rule="evenodd" stroke="#7c3159" stroke-linecap="round" stroke-linejoin="round" d="M 543.223816 493.725769 L 933.251526 523.509705 L 628.320801 390.191132 L 543.223816 493.725769 Z"/>
        <path id="path25" fill="#7b3059" fill-rule="evenodd" stroke="#7b3059" stroke-linecap="round" stroke-linejoin="round" d="M 798.514648 690.867065 L 543.223816 493.725769 L 933.251526 523.509705 Z"/>
        <path id="path26" fill="#7e345c" fill-rule="evenodd" stroke="#7e345c" stroke-linecap="round" stroke-linejoin="round" d="M 458.126923 293.747925 L 571.589417 293.747925 L 514.858154 136.843872 L 458.126923 293.747925 Z"/>
        <path id="path27" fill="#813960" fill-rule="evenodd" stroke="#813960" stroke-linecap="round" stroke-linejoin="round" d="M 724.763977 293.747925 L 907.722412 397.282562 L 933.251526 523.509705 L 724.763977 293.747925 Z"/>
        <path id="path28" fill="#7e345c" fill-rule="evenodd" stroke="#7e345c" stroke-linecap="round" stroke-linejoin="round" d="M 692.143494 136.843872 L 907.722412 397.282532 L 889.28479 306.512451 L 770.858154 191.76947 L 692.143494 136.843872 Z"/>
        <path id="path29" fill="#80365e" fill-rule="evenodd" stroke="#80365e" stroke-linecap="round" stroke-linejoin="round" d="M 724.763977 293.747955 L 907.722412 397.282532 L 692.143494 136.843872 L 724.763977 293.747955 Z"/>
        <path id="path30" fill="#80375f" fill-rule="evenodd" stroke="#80375f" stroke-linecap="round" stroke-linejoin="round" d="M 514.858154 136.843872 L 724.763977 293.747925 L 692.143494 136.843872 L 692.143494 136.843872"/>
        <path id="path31" fill="#813960" fill-rule="evenodd" stroke="#813960" stroke-linecap="round" stroke-linejoin="round" d="M 571.589417 293.747925 L 724.763977 293.747925 L 514.858154 136.843872 L 571.589417 293.747925 Z"/>
        <path id="path32" fill="#7a2e57" fill-rule="evenodd" stroke="#7a2e57" stroke-linecap="round" stroke-linejoin="round" d="M 1026.858154 523.509705 L 933.251526 523.509705 L 873.683655 663.919678 L 1026.858154 523.509705 Z"/>
        <path id="path33" fill="#7c3159" fill-rule="evenodd" stroke="#7c3159" stroke-linecap="round" stroke-linejoin="round" d="M 889.28479 306.512451 L 1026.858154 523.509705 L 933.251526 523.509705 L 889.28479 306.512451 Z"/>
        <path id="path34" fill="#905173" fill-rule="evenodd" stroke="#905173" stroke-linecap="round" stroke-linejoin="round" d="M 692.143494 136.843872 L 906.304138 3 L 770.149048 191.631592 L 692.143494 136.843872 Z"/>
        <path id="path35" fill="#7f365e" fill-rule="evenodd" stroke="#7f365e" stroke-linecap="round" stroke-linejoin="round" d="M 934.6698 141.991699 L 889.28479 306.512451 L 770.149048 191.631592 L 934.6698 141.991699 Z"/>
        <path id="path36" fill="#833c62" fill-rule="evenodd" stroke="#833c62" stroke-linecap="round" stroke-linejoin="round" d="M 906.304138 3 L 934.6698 141.991699 L 770.149048 191.631592 L 906.304138 3 Z"/>
        <path id="path37" fill="#772953" fill-rule="evenodd" stroke="#772953" stroke-linecap="round" stroke-linejoin="round" d="M 711.084106 435.987213 L 711.084106 496.973358 L 648.679688 496.973358 L 711.084106 435.987213 Z"/>
        <path id="path38" fill="#772a54" fill-opacity="0.8" fill-rule="evenodd" stroke="#782b55" stroke-linecap="round" stroke-linejoin="round" d="M 648.679688 496.973358 L 648.679688 435.987213 L 711.084106 435.987213 L 648.679688 496.973358 Z"/>
        <path id="Rectangle" fill="#7c3159" fill-rule="evenodd" stroke="#7c3159" stroke-linecap="round" stroke-linejoin="round" d="M 463.799988 692.285339 L 565.916321 692.285339 L 565.916321 639.808838 L 463.799988 639.808838 Z"/>
    </g>
</svg>
